<svg width="24" height="24" viewBox="0 0 24 24" fill="none" xmlns="http://www.w3.org/2000/svg">
<g clip-path="url(#clip0_2186_12248)">
<path d="M23.6409 14.9029C22.0381 21.3315 15.5262 25.2438 9.09605 23.6407C2.66863 22.038 -1.24415 15.5265 0.359423 9.09837C1.96159 2.66903 8.47348 -1.24361 14.9016 0.359081C21.3313 1.96177 25.2438 8.47404 23.6408 14.903L23.6409 14.9029H23.6409Z" fill="#F7931A"/>
<path d="M17.2921 10.2903C17.5309 8.6934 16.315 7.83498 14.6523 7.26233L15.1917 5.09914L13.8747 4.77103L13.3496 6.87726C13.0034 6.79092 12.6479 6.70957 12.2945 6.62892L12.8234 4.50878L11.5073 4.18066L10.9676 6.34315C10.6811 6.27793 10.3997 6.21347 10.1267 6.14554L10.1282 6.13874L8.31209 5.68528L7.96177 7.09171C7.96177 7.09171 8.93883 7.31565 8.91824 7.32943C9.45153 7.46252 9.54797 7.81551 9.53196 8.09529L8.91754 10.5597C8.95426 10.569 9.00189 10.5825 9.05445 10.6036C9.01052 10.5927 8.96376 10.5808 8.91525 10.5692L8.05404 14.0214C7.98887 14.1834 7.82344 14.4266 7.45059 14.3342C7.46379 14.3534 6.49341 14.0954 6.49341 14.0954L5.83957 15.6027L7.55336 16.0299C7.87219 16.1098 8.18462 16.1935 8.4923 16.2721L7.94734 18.4601L9.26276 18.7883L9.80245 16.6235C10.1618 16.721 10.5105 16.811 10.852 16.8958L10.3141 19.0504L11.6311 19.3785L12.176 17.1946C14.4217 17.6196 16.1103 17.4482 16.821 15.4172C17.3937 13.7821 16.7925 12.8389 15.611 12.2238C16.4716 12.0254 17.1197 11.4595 17.2925 10.2905L17.2921 10.2902L17.2921 10.2903ZM14.2831 14.5091C13.8761 16.1443 11.1227 15.2604 10.23 15.0387L10.9532 12.14C11.8458 12.3628 14.7085 12.8038 14.2832 14.5091H14.2831ZM14.6904 10.2666C14.3191 11.754 12.0274 10.9984 11.284 10.8131L11.9397 8.1841C12.6831 8.36939 15.0772 8.71522 14.6905 10.2666H14.6904Z" fill="white"/>
</g>
<defs>
<clipPath id="clip0_2186_12248">
<rect width="24" height="24" fill="white"/>
</clipPath>
</defs>
</svg>
