<svg width="24" height="24" viewBox="0 0 24 24" fill="none" xmlns="http://www.w3.org/2000/svg">
<path d="M23.6062 3.4786C24.0797 3.07548 24.1312 2.36298 23.7281 1.89423C23.325 1.42548 22.6125 1.36923 22.1437 1.77235L15.0094 7.88954L9.74061 3.27704C9.35624 2.94423 8.79842 2.90673 8.37655 3.18798L0.501549 8.43798C-0.014076 8.78485 -0.154701 9.48329 0.187487 9.99891C0.529674 10.5145 1.2328 10.6552 1.74842 10.313L8.90624 5.5411L14.2594 10.2239C14.6812 10.5942 15.3094 10.5942 15.7312 10.2333L23.6062 3.48329V3.4786ZM9.37499 20.2505C9.37499 20.4567 9.20624 20.6255 8.99999 20.6255C8.79374 20.6255 8.62499 20.4567 8.62499 20.2505V12.7505C8.62499 12.5442 8.79374 12.3755 8.99999 12.3755C9.20624 12.3755 9.37499 12.5442 9.37499 12.7505V20.2505ZM8.99999 10.5005C7.7578 10.5005 6.74999 11.5083 6.74999 12.7505V20.2505C6.74999 21.4927 7.7578 22.5005 8.99999 22.5005C10.2422 22.5005 11.25 21.4927 11.25 20.2505V12.7505C11.25 11.5083 10.2422 10.5005 8.99999 10.5005ZM3.37499 20.2505C3.37499 20.4567 3.20624 20.6255 2.99999 20.6255C2.79374 20.6255 2.62499 20.4567 2.62499 20.2505V17.2505C2.62499 17.0442 2.79374 16.8755 2.99999 16.8755C3.20624 16.8755 3.37499 17.0442 3.37499 17.2505V20.2505ZM2.99999 15.0005C1.7578 15.0005 0.749987 16.0083 0.749987 17.2505V20.2505C0.749987 21.4927 1.7578 22.5005 2.99999 22.5005C4.24217 22.5005 5.24999 21.4927 5.24999 20.2505V17.2505C5.24999 16.0083 4.24217 15.0005 2.99999 15.0005ZM15.375 15.7505V20.2505C15.375 20.4567 15.2062 20.6255 15 20.6255C14.7937 20.6255 14.625 20.4567 14.625 20.2505V15.7505C14.625 15.5442 14.7937 15.3755 15 15.3755C15.2062 15.3755 15.375 15.5442 15.375 15.7505ZM12.75 15.7505V20.2505C12.75 21.4927 13.7578 22.5005 15 22.5005C16.2422 22.5005 17.25 21.4927 17.25 20.2505V15.7505C17.25 14.5083 16.2422 13.5005 15 13.5005C13.7578 13.5005 12.75 14.5083 12.75 15.7505ZM21.375 20.2505C21.375 20.4567 21.2062 20.6255 21 20.6255C20.7937 20.6255 20.625 20.4567 20.625 20.2505V12.7505C20.625 12.5442 20.7937 12.3755 21 12.3755C21.2062 12.3755 21.375 12.5442 21.375 12.7505V20.2505ZM21 10.5005C19.7578 10.5005 18.75 11.5083 18.75 12.7505V20.2505C18.75 21.4927 19.7578 22.5005 21 22.5005C22.2422 22.5005 23.25 21.4927 23.25 20.2505V12.7505C23.25 11.5083 22.2422 10.5005 21 10.5005Z" fill="#9199A5"/>
</svg>
