<svg width="36" height="36" viewBox="0 0 36 36" fill="none" xmlns="http://www.w3.org/2000/svg">
<path opacity="0.1" d="M2.25 14.625C2.25 16.2492 3.44531 18.1758 6.37734 19.8211C9.23906 21.4312 13.3453 22.5 18 22.5C22.6547 22.5 26.7609 21.4312 29.6227 19.8211C32.5547 18.1758 33.75 16.2492 33.75 14.625C33.75 13.0008 32.5547 11.0742 29.6227 9.42891C26.7609 7.81875 22.6547 6.75 18 6.75C13.3453 6.75 9.23906 7.81875 6.37734 9.42891C3.44531 11.0742 2.25 13.0008 2.25 14.625ZM2.25 19.5328V22.5C2.25 23.407 2.84766 24.6023 4.5 25.7906V21.3188C3.64219 20.7703 2.88281 20.1727 2.25 19.5258V19.5328ZM4.5 14.3438C4.5 13.2609 5.07656 12.3539 5.83594 11.6508C6.60234 10.9547 7.64297 10.3711 8.83828 9.91406C11.2359 8.98594 14.4773 8.4375 17.993 8.4375C21.5086 8.4375 24.75 8.98594 27.1477 9.91406C28.343 10.3781 29.3906 10.9547 30.15 11.6508C30.9164 12.3469 31.4859 13.2609 31.4859 14.3438C31.4859 15.4266 30.9094 16.3336 30.15 17.0367C29.3836 17.7328 28.343 18.3164 27.1477 18.7734C24.75 19.7016 21.5086 20.25 17.993 20.25C14.4773 20.25 11.2359 19.7016 8.83828 18.7734C7.64297 18.3094 6.59531 17.7328 5.83594 17.0367C5.06953 16.3406 4.5 15.4266 4.5 14.3438ZM6.75 14.3438C6.75 14.5828 6.86953 14.9273 7.35469 15.3773C7.83984 15.8203 8.60625 16.2773 9.65391 16.6781C11.7352 17.4797 14.6883 18 18 18C21.3117 18 24.2648 17.4797 26.3461 16.6781C27.3867 16.2773 28.1602 15.8203 28.6453 15.3773C29.1305 14.9344 29.25 14.5828 29.25 14.3438C29.25 14.1047 29.1305 13.7602 28.6453 13.3102C28.1602 12.8672 27.3938 12.4102 26.3461 12.0094C24.2648 11.2078 21.3117 10.6875 18 10.6875C14.6883 10.6875 11.7352 11.2078 9.65391 12.0094C8.61328 12.4102 7.83984 12.8672 7.35469 13.3102C6.86953 13.7602 6.75 14.1047 6.75 14.3438ZM6.75 22.5281V27.0773C7.74844 27.5344 8.88047 27.9422 10.125 28.2727V23.7305C8.91562 23.4 7.79063 22.9922 6.75 22.5281ZM12.375 24.2437V28.7648C13.7812 29.018 15.293 29.1727 16.875 29.2289V24.7289C15.3141 24.6727 13.8023 24.5109 12.375 24.2437ZM19.125 24.7289V29.2289C20.707 29.1797 22.2188 29.018 23.625 28.7648V24.2437C22.1977 24.5109 20.6859 24.6727 19.125 24.7289ZM25.875 23.7305V28.2727C27.1195 27.9422 28.2516 27.5344 29.25 27.0773V22.5281C28.2094 22.9992 27.0844 23.4 25.875 23.7305ZM31.5 21.3188V25.7906C33.1523 24.6023 33.75 23.4 33.75 22.5V19.5328C33.1172 20.1797 32.3578 20.7773 31.5 21.3258V21.3188Z" fill="#12B76A"/>
<path d="M18 22.5C22.6547 22.5 26.7609 21.4312 29.6227 19.8211C32.5547 18.1758 33.75 16.2492 33.75 14.625C33.75 13.0008 32.5547 11.0742 29.6227 9.42891C26.7609 7.81875 22.6547 6.75 18 6.75C13.3453 6.75 9.23906 7.81875 6.37734 9.42891C3.44531 11.0742 2.25 13.0008 2.25 14.625C2.25 16.2492 3.44531 18.1758 6.37734 19.8211C9.23906 21.4312 13.3453 22.5 18 22.5ZM12.375 24.2437V28.7648C13.7812 29.018 15.293 29.1727 16.875 29.2289V24.7289C15.3141 24.6727 13.8023 24.5109 12.375 24.2437ZM10.125 23.7305C8.91562 23.4 7.79063 22.9922 6.75 22.5281V27.0773C7.74844 27.5344 8.88047 27.9422 10.125 28.2727V23.7305ZM2.25 19.5328V22.5C2.25 23.407 2.84766 24.6023 4.5 25.7906V21.3188C3.64219 20.7703 2.88281 20.1727 2.25 19.5258V19.5328ZM19.125 24.7359V29.2359C20.707 29.1867 22.2188 29.025 23.625 28.7719V24.2508C22.1977 24.518 20.6859 24.6797 19.125 24.7359ZM33.75 19.5328C33.1172 20.1797 32.3578 20.7773 31.5 21.3258V25.7977C33.1523 24.6094 33.75 23.407 33.75 22.507V19.5398V19.5328ZM25.875 23.7305V28.2727C27.1195 27.9422 28.2516 27.5344 29.25 27.0773V22.5281C28.2094 22.9992 27.0844 23.4 25.875 23.7305ZM0 14.625C0 9.03516 8.05781 4.5 18 4.5C27.9422 4.5 36 9.03516 36 14.625V16.875V22.5C36 27.4711 27.9422 31.5 18 31.5C8.05781 31.5 0 27.4711 0 22.5V16.875V14.625ZM18 10.6875C14.6883 10.6875 11.7352 11.2078 9.65391 12.0094C8.61328 12.4102 7.83984 12.8672 7.35469 13.3102C6.86953 13.7602 6.75 14.1047 6.75 14.3438C6.75 14.5828 6.86953 14.9273 7.35469 15.3773C7.83984 15.8203 8.60625 16.2773 9.65391 16.6781C11.7352 17.4797 14.6883 18 18 18C21.3117 18 24.2648 17.4797 26.3461 16.6781C27.3867 16.2773 28.1602 15.8203 28.6453 15.3773C29.1305 14.9344 29.25 14.5828 29.25 14.3438C29.25 14.1047 29.1305 13.7602 28.6453 13.3102C28.1602 12.8672 27.3938 12.4102 26.3461 12.0094C24.2648 11.2078 21.3117 10.6875 18 10.6875ZM31.5 14.3438C31.5 15.4266 30.9234 16.3336 30.1641 17.0367C29.3977 17.7328 28.357 18.3164 27.1617 18.7734C24.7641 19.7016 21.5227 20.25 18.007 20.25C14.4914 20.25 11.25 19.7016 8.85234 18.7734C7.65703 18.3094 6.60937 17.7328 5.85 17.0367C5.08359 16.3406 4.51406 15.4266 4.51406 14.3438C4.51406 13.2609 5.09062 12.3539 5.85 11.6508C6.61641 10.9547 7.65703 10.3711 8.85234 9.91406C11.25 8.98594 14.4914 8.4375 18.007 8.4375C21.5227 8.4375 24.7641 8.98594 27.1617 9.91406C28.357 10.3781 29.4047 10.9547 30.1641 11.6508C30.9305 12.3469 31.5 13.2609 31.5 14.3438Z" fill="#12B76A"/>
</svg>
