<svg width="209" height="90" viewBox="0 0 209 90" fill="none" xmlns="http://www.w3.org/2000/svg">
<path d="M88.2775 74.6841C92.5159 74.6841 95.9518 71.2478 95.9518 67.009C95.9518 62.7702 92.5159 59.334 88.2775 59.334C84.0391 59.334 80.6032 62.7702 80.6032 67.009C80.6032 71.2478 84.0391 74.6841 88.2775 74.6841Z" fill="#6C63FF"/>
<path d="M4.45062 6.69795V79.7938C4.45276 81.5696 5.15905 83.272 6.41458 84.5277C7.6701 85.7833 9.37234 86.4897 11.1479 86.4918H202.303C204.078 86.4897 205.781 85.7833 207.036 84.5277C208.292 83.272 208.998 81.5696 209 79.7938V6.69795C208.998 4.9222 208.292 3.2198 207.036 1.96415C205.781 0.708504 204.078 0.00213893 202.303 0H11.1479C9.37234 0.00213815 7.6701 0.7085 6.41458 1.96415C5.15905 3.21979 4.45276 4.9222 4.45062 6.69795ZM5.04095 6.69795C5.04095 5.07812 5.68436 3.52464 6.82963 2.37925C7.97491 1.23386 9.52825 0.590388 11.1479 0.590388H162.46C174.646 0.590388 186.334 5.43201 194.951 14.0501C203.569 22.6683 208.41 34.357 208.41 46.5449V79.7938C208.41 81.4137 207.766 82.9672 206.621 84.1126C205.476 85.2579 203.922 85.9014 202.303 85.9014H11.1479C9.52825 85.9014 7.97491 85.2579 6.82963 84.1126C5.68436 82.9672 5.04095 81.4137 5.04095 79.7938V6.69795Z" fill="#3F3D56"/>
<path d="M111.19 43.5489H102.33C102.1 43.5487 101.879 43.4572 101.717 43.2946C101.554 43.132 101.463 42.9116 101.463 42.6817V33.9287C101.463 33.6988 101.554 33.4784 101.717 33.3158C101.879 33.1532 102.1 33.0618 102.33 33.0615H111.19C111.42 33.0618 111.64 33.1532 111.803 33.3158C111.965 33.4784 112.057 33.6988 112.057 33.9287V42.6817C112.057 42.9116 111.965 43.132 111.803 43.2946C111.64 43.4572 111.42 43.5487 111.19 43.5489Z" fill="#F2F2F2"/>
<path d="M112.665 44.2872H103.805C103.575 44.2869 103.354 44.1955 103.192 44.0329C103.029 43.8703 102.938 43.6499 102.938 43.42V34.667C102.938 34.4371 103.029 34.2167 103.192 34.0541C103.354 33.8915 103.575 33.8001 103.805 33.7998H112.665C112.895 33.8001 113.115 33.8915 113.278 34.0541C113.44 34.2167 113.532 34.4371 113.532 34.667V43.42C113.532 43.6499 113.44 43.8703 113.278 44.0329C113.115 44.1955 112.895 44.2869 112.665 44.2872Z" fill="#E2E8F0"/>
<path d="M102.515 33.3203C102.305 33.3203 102.103 33.404 101.954 33.553C101.805 33.702 101.721 33.9041 101.721 34.1149V42.4964C101.721 42.7071 101.805 42.9092 101.954 43.0582C102.103 43.2072 102.305 43.2909 102.515 43.2909H107.933C108.958 43.2909 109.942 42.8836 110.666 42.1586C111.391 41.4337 111.799 40.4504 111.799 39.4251V34.1149C111.799 33.9041 111.715 33.702 111.566 33.553C111.417 33.404 111.215 33.3203 111.004 33.3203H102.515Z" fill="white"/>
<path d="M109.133 35.8639H104.368C104.325 35.8639 104.283 35.8465 104.252 35.8156C104.221 35.7847 104.203 35.7428 104.203 35.699C104.203 35.6553 104.221 35.6134 104.252 35.5825C104.283 35.5515 104.325 35.5342 104.368 35.5342H109.133C109.177 35.5342 109.218 35.5515 109.249 35.5825C109.28 35.6134 109.298 35.6553 109.298 35.699C109.298 35.7428 109.28 35.7847 109.249 35.8156C109.218 35.8465 109.177 35.8639 109.133 35.8639Z" fill="#F2F2F2"/>
<path d="M109.133 39.3795H104.368C104.325 39.3795 104.283 39.3622 104.252 39.3313C104.221 39.3003 104.203 39.2584 104.203 39.2147C104.203 39.1709 104.221 39.129 104.252 39.0981C104.283 39.0672 104.325 39.0498 104.368 39.0498H109.133C109.177 39.0498 109.218 39.0672 109.249 39.0981C109.28 39.129 109.298 39.1709 109.298 39.2147C109.298 39.2584 109.28 39.3003 109.249 39.3313C109.218 39.3622 109.177 39.3795 109.133 39.3795Z" fill="#F2F2F2"/>
<path d="M111.068 37.6227H102.433C102.39 37.6227 102.348 37.6053 102.317 37.5744C102.286 37.5435 102.269 37.5016 102.269 37.4578C102.269 37.4141 102.286 37.3722 102.317 37.3413C102.348 37.3103 102.39 37.293 102.433 37.293H111.068C111.111 37.293 111.153 37.3103 111.184 37.3413C111.215 37.3722 111.232 37.4141 111.232 37.4578C111.232 37.5016 111.215 37.5435 111.184 37.5744C111.153 37.6053 111.111 37.6227 111.068 37.6227Z" fill="#F2F2F2"/>
<path d="M111.156 40.8082H108.037C107.993 40.8082 107.951 40.7909 107.92 40.76C107.889 40.729 107.872 40.6871 107.872 40.6434C107.872 40.5997 107.889 40.5577 107.92 40.5268C107.951 40.4959 107.993 40.4785 108.037 40.4785H111.156C111.199 40.4785 111.241 40.4959 111.272 40.5268C111.303 40.5577 111.321 40.5997 111.321 40.6434C111.321 40.6871 111.303 40.729 111.272 40.76C111.241 40.7909 111.199 40.8082 111.156 40.8082Z" fill="#F2F2F2"/>
<path d="M84.4687 49.0285L84.3537 48.9717C77.6303 45.6474 70.357 45.6505 62.1184 48.9808L61.8973 48.4333C70.2536 45.0558 77.6489 45.0398 84.4997 48.3856C94.1407 44.7163 100.339 38.4975 102.923 29.8994L103.488 30.0695C100.838 38.8881 94.4788 45.2517 84.5887 48.9832L84.4687 49.0285Z" fill="#CBD5E1"/>
<path d="M112.516 49.029L112.4 48.9748C105.792 45.8744 98.5146 45.8773 90.1514 48.9843L89.9456 48.4308C98.4154 45.2841 105.806 45.2689 112.535 48.3861C123.329 44.0727 129.526 37.8647 130.956 29.9326L131.537 30.0373C130.063 38.2123 123.704 44.5862 112.634 48.9818L112.516 49.029Z" fill="#CBD5E1"/>
<path d="M134.619 48.7149L134.546 48.6835C129.102 46.3427 122.018 46.3476 112.255 48.6993L112.117 48.1254C121.967 45.7529 129.148 45.7471 134.706 48.1098C145.739 46.7605 151.753 40.7229 153.09 29.6543L153.677 29.7252C152.299 41.1297 146.091 47.3382 134.698 48.7054L134.619 48.7149Z" fill="#CBD5E1"/>
<path d="M105.692 31.2915C106.996 31.2915 108.054 30.2342 108.054 28.9299C108.054 27.6257 106.996 26.5684 105.692 26.5684C104.388 26.5684 103.331 27.6257 103.331 28.9299C103.331 30.2342 104.388 31.2915 105.692 31.2915Z" fill="#6C63FF"/>
<path d="M132.257 31.2915C133.561 31.2915 134.618 30.2342 134.618 28.9299C134.618 27.6257 133.561 26.5684 132.257 26.5684C130.953 26.5684 129.896 27.6257 129.896 28.9299C129.896 30.2342 130.953 31.2915 132.257 31.2915Z" fill="#6C63FF"/>
<path d="M153.509 30.9956C154.813 30.9956 155.87 29.9383 155.87 28.634C155.87 27.3298 154.813 26.2725 153.509 26.2725C152.205 26.2725 151.148 27.3298 151.148 28.634C151.148 29.9383 152.205 30.9956 153.509 30.9956Z" fill="#6C63FF"/>
<path d="M87.6847 67.0171H62.8638C62.2197 67.0164 61.6023 66.7602 61.1469 66.3048C60.6915 65.8493 60.4353 65.2318 60.4346 64.5877V40.0671C60.4353 39.423 60.6915 38.8055 61.1469 38.3501C61.6023 37.8946 62.2197 37.6384 62.8638 37.6377H87.6847C88.3288 37.6384 88.9463 37.8946 89.4017 38.3501C89.8571 38.8055 90.1132 39.423 90.114 40.0671V64.5877C90.1132 65.2318 89.8571 65.8493 89.4017 66.3048C88.9463 66.7602 88.3288 67.0164 87.6847 67.0171Z" fill="#CBD5E1"/>
<path d="M83.5524 64.9507H58.7315C58.0874 64.95 57.4699 64.6938 57.0145 64.2384C56.5591 63.7829 56.303 63.1654 56.3022 62.5213V38.0007C56.303 37.3566 56.5591 36.7391 57.0145 36.2837C57.4699 35.8282 58.0874 35.572 58.7315 35.5713H83.5524C84.1965 35.572 84.8139 35.8282 85.2693 36.2837C85.7247 36.7391 85.9809 37.3566 85.9816 38.0007V62.5213C85.9809 63.1654 85.7247 63.7829 85.2693 64.2384C84.8139 64.6938 84.1965 64.95 83.5524 64.9507Z" fill="#E6E6E6"/>
<path d="M63.3539 36.2949C61.6756 36.2949 60.0661 36.9617 58.8794 38.1485C57.6927 39.3353 57.026 40.945 57.026 42.6234V62.0008C57.026 62.2931 57.0836 62.5826 57.1954 62.8526C57.3073 63.1227 57.4712 63.368 57.6779 63.5747C57.8845 63.7814 58.1299 63.9454 58.3999 64.0572C58.6699 64.1691 58.9593 64.2267 59.2516 64.2267H74.429C75.851 64.2267 77.2592 63.9465 78.573 63.4023C79.8868 62.858 81.0805 62.0603 82.0861 61.0547C83.0916 60.049 83.8893 58.8551 84.4335 57.5412C84.9777 56.2272 85.2578 54.819 85.2578 53.3968V38.5207C85.2578 37.9304 85.0233 37.3643 84.6059 36.9469C84.1885 36.5294 83.6224 36.2949 83.0322 36.2949H63.3539Z" fill="white"/>
<path d="M77.7897 43.4198H64.4422C64.3197 43.4198 64.2022 43.3711 64.1156 43.2845C64.029 43.1979 63.9803 43.0804 63.9803 42.9579C63.9803 42.8354 64.029 42.718 64.1156 42.6314C64.2022 42.5448 64.3197 42.4961 64.4422 42.4961H77.7897C77.9122 42.4961 78.0296 42.5448 78.1162 42.6314C78.2028 42.718 78.2515 42.8354 78.2515 42.9579C78.2515 43.0804 78.2028 43.1979 78.1162 43.2845C78.0296 43.3711 77.9122 43.4198 77.7897 43.4198Z" fill="#E6E6E6"/>
<path d="M77.7898 53.2704H64.4422C64.3815 53.2705 64.3213 53.2587 64.2651 53.2356C64.209 53.2124 64.1579 53.1784 64.1149 53.1355C64.0719 53.0926 64.0378 53.0416 64.0145 52.9855C63.9912 52.9294 63.9792 52.8693 63.9792 52.8085C63.9792 52.7478 63.9912 52.6876 64.0145 52.6315C64.0378 52.5754 64.0719 52.5244 64.1149 52.4815C64.1579 52.4386 64.209 52.4046 64.2651 52.3815C64.3213 52.3584 64.3815 52.3465 64.4422 52.3467H77.7898C77.912 52.347 78.0292 52.3958 78.1156 52.4824C78.2019 52.5689 78.2504 52.6862 78.2504 52.8085C78.2504 52.9308 78.2019 53.0481 78.1156 53.1347C78.0292 53.2213 77.912 53.2701 77.7898 53.2704Z" fill="#E6E6E6"/>
<path d="M83.2098 48.3485H59.022C58.8995 48.3485 58.782 48.2998 58.6954 48.2132C58.6088 48.1266 58.5602 48.0091 58.5602 47.8866C58.5602 47.7642 58.6088 47.6467 58.6954 47.5601C58.782 47.4735 58.8995 47.4248 59.022 47.4248H83.2098C83.3323 47.4248 83.4498 47.4735 83.5364 47.5601C83.623 47.6467 83.6716 47.7642 83.6716 47.8866C83.6716 48.0091 83.623 48.1266 83.5364 48.2132C83.4498 48.2998 83.3323 48.3485 83.2098 48.3485Z" fill="#E6E6E6"/>
<path d="M83.4568 57.2733H74.7189C74.6582 57.2733 74.5982 57.2614 74.5422 57.2381C74.4861 57.2149 74.4352 57.1809 74.3923 57.138C74.3495 57.0951 74.3154 57.0442 74.2922 56.9882C74.269 56.9322 74.2571 56.8721 74.2571 56.8115C74.2571 56.7508 74.269 56.6907 74.2922 56.6347C74.3154 56.5787 74.3495 56.5278 74.3923 56.4849C74.4352 56.442 74.4861 56.408 74.5422 56.3848C74.5982 56.3616 74.6582 56.3496 74.7189 56.3496H83.4568C83.5793 56.3496 83.6968 56.3983 83.7834 56.4849C83.87 56.5715 83.9186 56.689 83.9186 56.8115C83.9186 56.9339 83.87 57.0514 83.7834 57.138C83.6968 57.2246 83.5793 57.2733 83.4568 57.2733Z" fill="#E6E6E6"/>
<path d="M142.477 42.3682H133.617C133.387 42.368 133.167 42.2765 133.004 42.114C132.842 41.9514 132.75 41.7309 132.75 41.501V32.7481C132.75 32.5182 132.842 32.2977 133.004 32.1351C133.167 31.9726 133.387 31.8811 133.617 31.8809H142.477C142.707 31.8811 142.928 31.9726 143.09 32.1351C143.253 32.2977 143.344 32.5182 143.344 32.7481V41.501C143.344 41.7309 143.253 41.9514 143.09 42.114C142.928 42.2765 142.707 42.368 142.477 42.3682Z" fill="#F2F2F2"/>
<path d="M143.952 43.1065H135.092C134.862 43.1063 134.642 43.0148 134.479 42.8522C134.317 42.6897 134.225 42.4692 134.225 42.2393V33.4864C134.225 33.2564 134.317 33.036 134.479 32.8734C134.642 32.7108 134.862 32.6194 135.092 32.6191H143.952C144.182 32.6194 144.403 32.7108 144.565 32.8734C144.728 33.036 144.819 33.2564 144.82 33.4864V42.2393C144.819 42.4692 144.728 42.6897 144.565 42.8522C144.403 43.0148 144.182 43.1063 143.952 43.1065Z" fill="#E2E8F0"/>
<path d="M133.803 32.1396C133.592 32.1396 133.39 32.2234 133.241 32.3724C133.092 32.5214 133.008 32.7235 133.008 32.9342V41.3157C133.008 41.5264 133.092 41.7285 133.241 41.8776C133.39 42.0266 133.592 42.1103 133.803 42.1103H139.221C140.246 42.1103 141.229 41.703 141.954 40.978C142.679 40.253 143.086 39.2697 143.086 38.2444V32.9342C143.086 32.7235 143.002 32.5214 142.853 32.3724C142.704 32.2234 142.502 32.1396 142.292 32.1396H133.803Z" fill="white"/>
<path d="M140.42 34.6832H135.656C135.612 34.6832 135.57 34.6659 135.539 34.635C135.508 34.604 135.491 34.5621 135.491 34.5184C135.491 34.4747 135.508 34.4327 135.539 34.4018C135.57 34.3709 135.612 34.3535 135.656 34.3535H140.42C140.464 34.3535 140.506 34.3709 140.537 34.4018C140.568 34.4327 140.585 34.4747 140.585 34.5184C140.585 34.5621 140.568 34.604 140.537 34.635C140.506 34.6659 140.464 34.6832 140.42 34.6832Z" fill="#F2F2F2"/>
<path d="M140.42 38.1989H135.656C135.612 38.1989 135.57 38.1815 135.539 38.1506C135.508 38.1197 135.491 38.0777 135.491 38.034C135.491 37.9903 135.508 37.9483 135.539 37.9174C135.57 37.8865 135.612 37.8691 135.656 37.8691H140.42C140.464 37.8691 140.506 37.8865 140.537 37.9174C140.568 37.9483 140.585 37.9903 140.585 38.034C140.585 38.0777 140.568 38.1197 140.537 38.1506C140.506 38.1815 140.464 38.1989 140.42 38.1989Z" fill="#F2F2F2"/>
<path d="M142.355 36.442H133.721C133.677 36.442 133.635 36.4247 133.604 36.3938C133.573 36.3628 133.556 36.3209 133.556 36.2772C133.556 36.2334 133.573 36.1915 133.604 36.1606C133.635 36.1297 133.677 36.1123 133.721 36.1123H142.355C142.399 36.1123 142.441 36.1297 142.472 36.1606C142.503 36.1915 142.52 36.2334 142.52 36.2772C142.52 36.3209 142.503 36.3628 142.472 36.3938C142.441 36.4247 142.399 36.442 142.355 36.442Z" fill="#F2F2F2"/>
<path d="M142.443 39.6286H139.324C139.28 39.6286 139.238 39.6112 139.208 39.5803C139.177 39.5494 139.159 39.5074 139.159 39.4637C139.159 39.42 139.177 39.378 139.208 39.3471C139.238 39.3162 139.28 39.2988 139.324 39.2988H142.443C142.487 39.2988 142.529 39.3162 142.56 39.3471C142.591 39.378 142.608 39.42 142.608 39.4637C142.608 39.5074 142.591 39.5494 142.56 39.5803C142.529 39.6112 142.487 39.6286 142.443 39.6286Z" fill="#F2F2F2"/>
<path d="M0.226807 17.1774L2.00074 17.0859C1.41466 17.1822 0.819684 17.2129 0.226807 17.1774Z" fill="#F2F2F2"/>
<path d="M37.6164 87.367L39.5456 87.3669L40.4633 79.9248L37.616 79.9251L37.6164 87.367Z" fill="#FFB6B6"/>
<path d="M37.5484 89.3776L43.481 89.3774V89.3024C43.4809 88.6899 43.2377 88.1026 42.8046 87.6695C42.3716 87.2364 41.7843 86.9931 41.1719 86.9931H41.1717L40.0881 86.1709L38.0662 86.9932L37.5483 86.9932L37.5484 89.3776Z" fill="#2F2E41"/>
<path d="M29.2008 87.367L31.1301 87.3669L32.0478 79.9248L29.2004 79.9251L29.2008 87.367Z" fill="#FFB6B6"/>
<path d="M29.133 89.3776L35.0656 89.3774V89.3024C35.0655 88.6899 34.8223 88.1026 34.3892 87.6695C33.9562 87.2364 33.3689 86.9931 32.7565 86.9931H32.7563L31.6727 86.1709L29.6508 86.9932L29.1329 86.9932L29.133 89.3776Z" fill="#2F2E41"/>
<path d="M42.42 46.8164C42.42 46.8164 44.2762 52.5179 43.9335 53.2683C43.5909 54.0187 43.0064 53.4341 43.5909 54.0187C44.1755 54.6033 44.6858 53.9818 44.1383 54.9746C43.5909 55.9673 42.7616 64.14 42.3969 64.5356C42.0321 64.9312 41.5307 64.9419 41.9763 65.3263C42.4219 65.7107 43.0064 64.9312 42.4218 65.7107C41.8373 66.4902 40.2862 84.4717 40.2862 84.4717H37.2561C37.2561 84.4717 36.5014 83.6017 36.9286 83.0355C37.3558 82.4693 36.8911 82.2511 36.9286 81.873C36.9661 81.495 36.824 80.6799 36.7976 80.308C36.7712 79.936 36.2591 71.0756 37.4894 65.9573L35.246 56.2116L32.5285 67.9906C32.5285 67.9906 33.7786 77.8708 32.5285 81.0469C32.5285 81.0469 33.5363 81.8862 33.0893 82.3726C32.6424 82.859 32.2527 82.4693 32.6424 82.8591C33.0321 83.2488 32.0578 84.6129 32.0578 84.6129L28.7454 84.418L26.8706 65.9573C26.8706 65.9573 26.5545 64.0321 26.8706 63.7022C27.1866 63.3723 27.1866 64.5415 27.1866 63.3723V61.8134C27.1866 61.8134 27.3697 52.225 27.3941 51.6603C27.4185 51.0957 29.7567 47.0034 29.7567 47.0034L42.42 46.8164Z" fill="#2F2E41"/>
<path d="M42.3924 27.1248V38.3671C42.0295 39.4557 41.8423 40.5952 41.8378 41.7426C41.8498 43.6538 42.27 45.8563 42.2687 46.8192C42.2743 46.9469 42.2604 47.0747 42.2275 47.1982C40.367 52.5913 30.5221 47.6903 29.6271 47.2315C29.5846 47.2102 29.5619 47.1982 29.5619 47.1982L29.7561 41.1574L29.7229 39.4205L29.4928 27.5052L29.6989 27.3403L31.5049 25.8999L31.6817 25.7589L32.2243 26.5502L37.061 26.2177L38.9068 25.707L39.4827 25.9411L42.0785 26.9971L42.3924 27.1248Z" fill="#6C63FF"/>
<path d="M59.2488 35.9586L55.8594 34.8379L54.9491 36.685L58.5748 37.7424C58.6933 37.9305 58.8619 38.0818 59.0617 38.1793C59.2615 38.2769 59.4845 38.3167 59.7057 38.2944C59.9269 38.2721 60.1375 38.1886 60.3138 38.0531C60.4901 37.9177 60.6252 37.7358 60.7038 37.5278C60.7824 37.3198 60.8014 37.094 60.7587 36.8758C60.716 36.6576 60.6133 36.4557 60.4622 36.2926C60.311 36.1296 60.1174 36.012 59.903 35.953C59.6887 35.894 59.4621 35.8959 59.2488 35.9586Z" fill="#FFB6B6"/>
<path d="M39.109 26.0322L39.095 26.0883C38.8301 27.148 38.492 30.1748 39.2166 30.992C40.1471 32.0429 47.6634 35.2508 49.1566 34.9894C50.3147 34.7867 50.0763 34.8548 50.6303 35.4313C51.1844 36.0078 50.2647 36.1425 51.5007 36.2433C52.7367 36.3442 52.7614 35.8709 53.0261 36.3958C53.2908 36.9207 53.0553 37.2371 53.8965 37.2079C54.7377 37.1787 54.9485 37.3357 55.2379 37.3873C55.5272 37.4388 57.3442 38.3002 57.3442 38.3002C57.3442 38.3002 58.0731 36.2206 58.9905 35.4286C58.9905 35.4286 56.8865 35.173 56.7272 34.7265C56.5679 34.2801 56.698 33.8853 56.1462 33.9661C55.5944 34.0469 55.3073 34.6526 55.3835 33.8898C55.4597 33.1271 51.4848 31.6422 51.4848 31.6422C49.0859 29.2801 44.1573 27.6391 39.109 26.0322Z" fill="#6C63FF"/>
<path d="M28.3552 49.5105L28.2014 45.9435L26.1517 45.7471L26.4485 49.5125C26.3146 49.69 26.2329 49.9013 26.2125 50.1227C26.1922 50.3441 26.234 50.5668 26.3332 50.7657C26.4325 50.9647 26.5853 51.132 26.7744 51.2489C26.9635 51.3657 27.1815 51.4275 27.4038 51.4273C27.6261 51.4271 27.844 51.3648 28.0329 51.2475C28.2217 51.1303 28.3742 50.9626 28.473 50.7635C28.5719 50.5643 28.6132 50.3416 28.5924 50.1202C28.5716 49.8988 28.4894 49.6877 28.3552 49.5105Z" fill="#FFB6B6"/>
<path d="M30.4978 27.1572L30.4404 27.164C29.9061 27.227 29.3953 27.4194 28.952 27.7243C28.5088 28.0293 28.1466 28.4377 27.8968 28.9141C27.2442 30.1568 25.1796 38.5735 25.6851 39.7285C26.1565 40.8057 26.137 40.5408 25.7945 41.2634C25.4519 41.9859 24.9999 41.1736 25.3438 42.3652C25.6876 43.5568 26.1389 43.412 25.742 43.8457C25.345 44.2793 24.9658 44.1712 25.2913 44.9475C25.6168 45.7237 25.5448 45.9766 25.5991 46.2655C25.6535 46.5544 25.4923 48.5589 25.4923 48.5589C25.4923 48.5589 27.6951 48.5033 28.7607 49.0804C28.7607 49.0804 28.2538 47.0222 28.6147 46.7149C28.9757 46.4077 29.3909 46.3894 29.1198 45.902C28.8486 45.4146 28.1805 45.3609 28.9207 45.1618C29.6608 44.9627 29.64 40.7191 29.64 40.7191L30.4978 27.1572Z" fill="#6C63FF"/>
<path d="M35.7789 22.6111C35.6925 22.6311 35.6061 22.6484 35.5196 22.6617C35.2556 22.705 34.9875 22.7189 34.7204 22.7029C34.0246 22.6655 33.3527 22.4361 32.7793 22.0402C32.2059 21.6442 31.7534 21.0972 31.4719 20.4597C31.1904 19.8222 31.091 19.1192 31.1846 18.4287C31.2783 17.7381 31.5613 17.087 32.0024 16.5475C32.4435 16.0081 33.0254 15.6013 33.6835 15.3724C34.3417 15.1435 35.0504 15.1014 35.731 15.2507C36.4116 15.4 37.0376 15.735 37.5394 16.2184C38.0413 16.7018 38.3995 17.3148 38.5743 17.9894C38.5823 18.02 38.5902 18.0493 38.5969 18.0799C38.8238 19.0545 38.6544 20.0793 38.126 20.929C37.5976 21.7787 36.7533 22.3838 35.7789 22.6111Z" fill="#FFB6B6"/>
<path d="M32.2971 22.1672C31.7724 21.7565 31.7215 20.9737 31.2737 20.4803C30.5251 19.6553 30.1734 18.7677 30.5655 17.7901C30.9124 16.9255 30.8387 15.8626 31.5857 15.3061C31.2188 15.1732 31.1324 14.8974 31.4562 14.8923C31.6745 14.8889 32.4883 15.3061 32.0967 14.7863C31.7051 14.2665 32.4464 14.4717 32.3974 14.2589C32.3483 14.0461 32.0339 13.9283 31.8953 14.0969C32.338 13.5781 33.3048 13.6888 33.6189 14.2941C34.0601 13.6327 34.5285 13.1777 35.2037 13.5974C35.8669 14.0096 35.8582 14.5191 36.5713 14.3967C36.9066 14.3391 36.9383 14.9725 37.1673 15.2241C37.3963 15.4756 37.7311 15.6703 38.0653 15.6071C38.3996 15.5439 38.6552 15.1273 38.4679 14.8434L39.2556 16.6407L39.5731 16.2513C40.0776 16.5801 39.9119 17.4381 39.4041 17.7617C38.8963 18.0853 37.9272 17.3373 37.6516 17.8727C37.2172 18.7168 36.1981 18.2906 35.4982 17.6941C34.6495 16.9707 33.6251 19.1701 34.034 20.2076C33.6098 19.791 32.8251 20.1367 32.6053 20.6892C32.3856 21.2417 32.5467 21.8641 32.7096 22.4359L32.2971 22.1672Z" fill="#2F2E41"/>
<path d="M39.4827 25.9402L39.351 26.1077L38.9973 26.5573L35.9426 30.4422L31.5049 25.8989L31.6818 25.7579L32.6233 23.7563L37.46 23.4238L38.9069 25.7061L39.4827 25.9402Z" fill="#3F3D56"/>
</svg>
