<svg width="117" height="83" viewBox="0 0 117 83" fill="none" xmlns="http://www.w3.org/2000/svg">
<g clip-path="url(#clip0_2186_18566)">
<path d="M116.443 27.0943C114.829 32.7093 110.117 36.64 105.201 39.979C104.515 40.4453 103.828 40.9008 103.141 41.3457C103.137 41.3477 103.132 41.3521 103.127 41.3542C103.094 41.3755 103.061 41.3968 103.03 41.4182C102.888 41.5099 102.747 41.6016 102.606 41.6921L102.683 41.7269C102.683 41.7269 102.759 41.7674 102.676 41.7334C102.651 41.7231 102.626 41.7137 102.601 41.7033C99.7452 40.5483 96.8388 39.3081 94.6503 37.1442C92.38 34.8972 91.0533 31.3729 92.2826 28.421C92.4442 28.0343 92.6483 27.667 92.8911 27.3257C92.9908 27.1826 93.0982 27.0456 93.2101 26.9112C93.8882 26.0812 94.7744 25.4473 95.7778 25.0747C96.7812 24.7022 97.8654 24.6043 98.9189 24.7912C99.9725 24.9782 100.957 25.4431 101.772 26.1384C102.587 26.8336 103.203 27.734 103.556 28.7469C103.917 25.3747 101.144 22.5499 98.4761 20.4657C95.8066 18.3825 92.7734 16.1139 92.2573 12.7604C91.9691 10.8946 92.6161 9.08638 93.7946 7.63484C93.8311 7.59073 93.8675 7.54669 93.9051 7.50379C95.3397 5.81317 97.3575 4.72755 99.5554 4.46378C103.649 4.03714 107.625 6.21003 110.598 9.06421C115.385 13.6564 118.278 20.71 116.443 27.0943Z" fill="#F2F2F2"/>
<path d="M108.749 19.7504C109.535 20.9761 110.138 22.3102 110.54 23.7105C110.879 24.9621 111.031 26.2576 110.988 27.554C110.915 30.2188 110.097 32.8228 108.811 35.142C107.816 36.9006 106.603 38.526 105.201 39.9795C104.515 40.4458 103.828 40.9014 103.141 41.3462C103.137 41.3483 103.132 41.3526 103.127 41.3547C103.094 41.376 103.061 41.3973 103.03 41.4188C102.888 41.5104 102.747 41.6021 102.606 41.6927C102.606 41.6927 102.759 41.7679 102.676 41.7339C102.651 41.7236 102.626 41.7143 102.601 41.7039C102.857 39.5994 102.606 37.4641 101.87 35.4768C101.133 33.4895 99.9327 31.7082 98.3685 30.2822C96.8004 28.8778 94.9237 27.865 92.8911 27.3262C92.9909 27.1831 93.0983 27.0462 93.2101 26.9117C93.9951 27.1325 94.7591 27.4224 95.4931 27.7782C98.1172 29.0419 100.266 31.1194 101.621 33.703C102.837 36.0491 103.36 38.6945 103.13 41.3284C103.247 41.2218 103.364 41.1129 103.478 41.0049C105.648 38.976 107.576 36.647 108.88 33.9592C110.012 31.6831 110.568 29.1627 110.5 26.6202C110.393 23.8479 109.292 21.28 107.697 19.0445C105.989 16.652 103.847 14.5353 101.56 12.7016C99.2178 10.82 96.6546 9.23294 93.9277 7.97582C93.8662 7.94704 93.8181 7.89564 93.7933 7.83228C93.7685 7.76891 93.769 7.69842 93.7946 7.63538C93.8128 7.5788 93.8525 7.53171 93.9051 7.50434C93.9322 7.49263 93.9615 7.4872 93.991 7.48846C94.0204 7.48971 94.0492 7.49762 94.0752 7.51158C94.4119 7.66702 94.7462 7.82459 95.0779 7.98897C97.8403 9.35827 100.422 11.0664 102.765 13.0742C105.028 15.0088 107.158 17.2191 108.749 19.7504Z" fill="white"/>
<path d="M90.104 59.245C93.4101 59.245 96.0902 56.5572 96.0902 53.2416C96.0902 49.9261 93.4101 47.2383 90.104 47.2383C86.798 47.2383 84.1179 49.9261 84.1179 53.2416C84.1179 56.5572 86.798 59.245 90.104 59.245Z" fill="#2F2E41"/>
<path d="M85.4315 50.0052C86.3988 49.0351 86.5949 47.6588 85.8694 46.9313C85.1439 46.2037 83.7716 46.4003 82.8042 47.3704C81.8369 48.3405 81.6408 49.7168 82.3663 50.4444C83.0918 51.172 84.4642 50.9754 85.4315 50.0052Z" fill="#2F2E41"/>
<path d="M96.3432 48.0987C96.7462 47.1524 96.0531 45.9484 94.7951 45.4095C93.537 44.8706 92.1904 45.2008 91.7874 46.147C91.3843 47.0933 92.0774 48.2972 93.3355 48.8362C94.5936 49.3751 95.9401 49.0449 96.3432 48.0987Z" fill="#2F2E41"/>
<path d="M102.781 79.019C101.753 79.7357 100.666 80.3642 99.532 80.8979L99.3644 80.6009L97.7601 77.7767L97.6196 77.5289L96.7988 76.0845L96.7971 76.0828L94.2061 71.5173L92.8742 69.1734L96.8293 66.3916L98.3677 69.6537L99.202 71.4256L102.636 78.7085L102.781 79.019Z" fill="#A0616A"/>
<path d="M99.2477 68.0034L98.7518 67.2244L96.5585 63.7739C96.259 63.1035 95.7068 62.5795 95.0228 62.3166C94.3389 62.0538 93.5789 62.0735 92.9094 62.3715C92.2399 62.6695 91.7154 63.2214 91.451 63.9065C91.1865 64.5915 91.2035 65.3537 91.4983 66.0262L92.8539 70.8701C92.8921 71.0071 92.9592 71.1344 93.0505 71.2433C93.1418 71.3523 93.2554 71.4403 93.3835 71.5016C93.5116 71.5628 93.6513 71.5959 93.7932 71.5985C93.935 71.6011 94.0758 71.5732 94.2061 71.5167C94.2112 71.515 94.2146 71.5133 94.2196 71.5116L98.3677 69.6532L98.8144 69.4529C98.9449 69.3939 99.0612 69.3076 99.1554 69.1997C99.2497 69.0917 99.3198 68.9647 99.3609 68.8273C99.4019 68.6899 99.4131 68.5452 99.3936 68.403C99.374 68.2609 99.3243 68.1246 99.2477 68.0034Z" fill="#6C63FF"/>
<path d="M87.33 68.1117L86.1758 70.7254L85.9253 71.294L81.6521 80.975L81.515 81.2856C80.3578 80.8017 79.2436 80.2203 78.1844 79.5477L78.2995 79.2218L81.7874 69.3524L82.6438 66.9287L84.5189 67.4022L87.33 68.1117Z" fill="#A0616A"/>
<path d="M94.7517 57.1193C96.0975 54.6502 95.1927 51.5545 92.7307 50.2048C90.2688 48.8551 87.1819 49.7625 85.8361 52.2315C84.4902 54.7006 85.395 57.7963 87.857 59.146C90.319 60.4957 93.4058 59.5883 94.7517 57.1193Z" fill="#A0616A"/>
<path d="M99.1495 69.2059C99.0761 68.5346 98.943 67.8711 98.7518 67.2235C98.1757 65.2737 97.0741 63.5212 95.5685 62.159C95.0153 61.661 94.2979 61.3859 93.5545 61.3867H86.3974C85.8831 61.3854 85.3769 61.5163 84.9274 61.7669C84.4778 62.0176 84.0998 62.3796 83.8294 62.8184C83.559 63.2572 83.4053 63.7582 83.3829 64.2736C83.3605 64.789 83.4702 65.3015 83.7015 65.7622L84.519 67.4017L86.1758 70.7249L86.5734 71.5209L88.3454 75.0767L88.4859 75.3584L97.4808 77.8397L97.5198 77.7532C97.5536 77.6768 97.5874 77.6021 97.6196 77.5275C97.6687 77.4137 97.7178 77.3034 97.7635 77.1914C98.6706 75.0342 99.0988 73.1146 99.202 71.4242C99.2483 70.6846 99.2308 69.9424 99.1495 69.2059Z" fill="#6C63FF"/>
<path d="M87.6956 62.3175C87.0335 62.0064 86.2756 61.9711 85.5876 62.2192C84.8996 62.4673 84.3377 62.9787 84.0248 63.6413L83.3868 64.6071L81.2544 67.8352C81.1752 67.955 81.1228 68.0905 81.1005 68.2324C81.0783 68.3744 81.0868 68.5195 81.1255 68.6578C81.1643 68.7962 81.2322 68.9245 81.3248 69.0342C81.4175 69.1438 81.5325 69.2321 81.6623 69.2931L81.7875 69.3525L85.9253 71.2942L86.2198 71.4317C86.3308 71.4841 86.4509 71.5146 86.5735 71.5216C86.737 71.5346 86.9012 71.506 87.0508 71.4384C87.1813 71.3799 87.2977 71.2937 87.392 71.1859C87.4863 71.0782 87.5564 70.9513 87.5974 70.8139L89.0292 66.009C89.3398 65.342 89.3738 64.5787 89.1238 63.8866C88.8737 63.1945 88.3601 62.6302 87.6956 62.3175Z" fill="#6C63FF"/>
<path d="M97.7635 77.1914C97.7332 77.0858 97.6845 76.9863 97.6196 76.8978C97.3881 76.5866 97.1115 76.312 96.7989 76.0831L96.7971 76.0814C95.709 75.2549 93.5427 74.2891 89.3642 74.2637H89.3574C89.1659 74.2635 88.9784 74.3186 88.8172 74.4225C88.6561 74.5263 88.5281 74.6744 88.4486 74.8492L88.3454 75.0767L87.6803 76.5431C87.6239 76.6693 87.5344 76.7778 87.4214 76.8571C86.8205 77.2831 84.9082 78.8275 83.9199 81.7773C83.8843 81.8826 83.8504 81.9895 83.8183 82.0998C88.0441 83.3379 92.5402 83.2971 96.743 81.9827L96.836 81.5974L97.7601 77.7753L97.7754 77.7125C97.8172 77.5408 97.8131 77.361 97.7635 77.1914Z" fill="#2F2E41"/>
<path d="M84.9556 51.4705C86.1165 52.273 87.4945 52.7001 88.9044 52.6944C88.4015 53.0442 87.8289 53.2804 87.2261 53.3869C89.1008 53.7901 91.0383 53.8011 92.9173 53.4189C93.335 53.3518 93.738 53.2129 94.1087 53.0086C94.2935 52.9051 94.4544 52.7638 94.5811 52.5939C94.7078 52.4239 94.7974 52.2292 94.8441 52.0222C94.969 51.3069 94.4132 50.6569 93.8355 50.2189C92.9511 49.5585 91.9314 49.1035 90.8502 48.8868C89.769 48.6702 88.6532 48.6972 87.5837 48.966C86.8853 49.1471 86.1857 49.453 85.7321 50.0154C85.2785 50.5779 85.1441 51.445 85.5763 52.0242L84.9556 51.4705Z" fill="#2F2E41"/>
<path d="M91.964 5.17285H0.183792V5.54176H91.964V5.17285Z" fill="#3F3D56"/>
<path d="M3.31057 3.87461C3.92005 3.87461 4.41414 3.37911 4.41414 2.76787C4.41414 2.15664 3.92005 1.66113 3.31057 1.66113C2.70109 1.66113 2.207 2.15664 2.207 2.76787C2.207 3.37911 2.70109 3.87461 3.31057 3.87461Z" fill="#3F3D56"/>
<path d="M6.48334 3.87461C7.09282 3.87461 7.58691 3.37911 7.58691 2.76787C7.58691 2.15664 7.09282 1.66113 6.48334 1.66113C5.87385 1.66113 5.37977 2.15664 5.37977 2.76787C5.37977 3.37911 5.87385 3.87461 6.48334 3.87461Z" fill="#3F3D56"/>
<path d="M9.65611 3.87461C10.2656 3.87461 10.7597 3.37911 10.7597 2.76787C10.7597 2.15664 10.2656 1.66113 9.65611 1.66113C9.04662 1.66113 8.55254 2.15664 8.55254 2.76787C8.55254 3.37911 9.04662 3.87461 9.65611 3.87461Z" fill="#3F3D56"/>
<path d="M72.0869 26.5827H19.9958C19.8408 26.5827 19.6873 26.5521 19.544 26.4926C19.4008 26.4331 19.2707 26.3459 19.161 26.2359C19.0514 26.126 18.9645 25.9955 18.9051 25.8518C18.8458 25.7082 18.8153 25.5542 18.8153 25.3988C18.8153 25.2433 18.8458 25.0893 18.9051 24.9457C18.9645 24.8021 19.0514 24.6715 19.161 24.5616C19.2707 24.4517 19.4008 24.3645 19.544 24.305C19.6873 24.2455 19.8408 24.2148 19.9958 24.2148H72.0869C72.242 24.2148 72.3955 24.2455 72.5387 24.305C72.6819 24.3645 72.8121 24.4517 72.9217 24.5616C73.0313 24.6715 73.1183 24.8021 73.1776 24.9457C73.2369 25.0893 73.2675 25.2433 73.2675 25.3988C73.2675 25.5542 73.2369 25.7082 73.1776 25.8518C73.1183 25.9955 73.0313 26.126 72.9217 26.2359C72.8121 26.3459 72.6819 26.4331 72.5387 26.4926C72.3955 26.5521 72.242 26.5827 72.0869 26.5827Z" fill="#CCCCCC"/>
<path d="M72.0869 39.3102H19.9958C19.8408 39.3102 19.6873 39.2796 19.544 39.2201C19.4008 39.1606 19.2707 39.0734 19.161 38.9635C19.0514 38.8535 18.9645 38.723 18.9051 38.5794C18.8458 38.4357 18.8153 38.2818 18.8153 38.1263C18.8153 37.9708 18.8458 37.8169 18.9051 37.6732C18.9645 37.5296 19.0514 37.3991 19.161 37.2891C19.2707 37.1792 19.4008 37.092 19.544 37.0325C19.6873 36.973 19.8408 36.9424 19.9958 36.9424H72.0869C72.242 36.9424 72.3955 36.973 72.5387 37.0325C72.6819 37.092 72.8121 37.1792 72.9217 37.2891C73.0313 37.3991 73.1183 37.5296 73.1776 37.6732C73.2369 37.8169 73.2675 37.9708 73.2675 38.1263C73.2675 38.2818 73.2369 38.4357 73.1776 38.5794C73.1183 38.723 73.0313 38.8535 72.9217 38.9635C72.8121 39.0734 72.6819 39.1606 72.5387 39.2201C72.3955 39.2796 72.242 39.3102 72.0869 39.3102Z" fill="#E6E6E6"/>
<path d="M72.0869 44.194H19.9958C19.6827 44.194 19.3824 44.0693 19.161 43.8473C18.9397 43.6252 18.8153 43.3241 18.8153 43.0101C18.8153 42.6961 18.9397 42.395 19.161 42.1729C19.3824 41.9509 19.6827 41.8262 19.9958 41.8262H72.0869C72.4 41.8262 72.7003 41.9509 72.9217 42.1729C73.1431 42.395 73.2675 42.6961 73.2675 43.0101C73.2675 43.3241 73.1431 43.6252 72.9217 43.8473C72.7003 44.0693 72.4 44.194 72.0869 44.194Z" fill="#E6E6E6"/>
<path d="M63.6018 21.5505H28.4809C28.1678 21.5505 27.8675 21.4257 27.6461 21.2037C27.4248 20.9817 27.3004 20.6805 27.3004 20.3665C27.3004 20.0525 27.4248 19.7514 27.6461 19.5294C27.8675 19.3074 28.1678 19.1826 28.4809 19.1826H63.6018C63.9149 19.1826 64.2152 19.3074 64.4366 19.5294C64.658 19.7514 64.7824 20.0525 64.7824 20.3665C64.7824 20.6805 64.658 20.9817 64.4366 21.2037C64.2152 21.4257 63.9149 21.5505 63.6018 21.5505Z" fill="#CCCCCC"/>
<path d="M38.3603 34.4265H20.062C19.9069 34.4266 19.7532 34.3961 19.6098 34.3367C19.4664 34.2773 19.3361 34.1901 19.2264 34.0802C19.1166 33.9702 19.0295 33.8397 18.9701 33.6959C18.9107 33.5522 18.8801 33.3981 18.8801 33.2425C18.8801 33.0869 18.9107 32.9329 18.9701 32.7891C19.0295 32.6454 19.1166 32.5148 19.2264 32.4049C19.3361 32.2949 19.4664 32.2077 19.6098 32.1483C19.7532 32.0889 19.9069 32.0584 20.062 32.0586H38.3603C38.6734 32.0586 38.9737 32.1833 39.1951 32.4054C39.4165 32.6274 39.5409 32.9285 39.5409 33.2425C39.5409 33.5565 39.4165 33.8577 39.1951 34.0797C38.9737 34.3017 38.6734 34.4265 38.3603 34.4265Z" fill="#E6E6E6"/>
<path d="M72.1532 34.4265H53.8549C53.6997 34.4266 53.546 34.3961 53.4027 34.3367C53.2593 34.2773 53.129 34.1901 53.0192 34.0802C52.9094 33.9702 52.8223 33.8397 52.7629 33.6959C52.7035 33.5522 52.6729 33.3981 52.6729 33.2425C52.6729 33.0869 52.7035 32.9329 52.7629 32.7891C52.8223 32.6454 52.9094 32.5148 53.0192 32.4049C53.129 32.2949 53.2593 32.2077 53.4027 32.1483C53.546 32.0889 53.6997 32.0584 53.8549 32.0586H72.1532C72.3083 32.0584 72.462 32.0889 72.6054 32.1483C72.7488 32.2077 72.8791 32.2949 72.9888 32.4049C73.0986 32.5148 73.1857 32.6454 73.2451 32.7891C73.3045 32.9329 73.3351 33.0869 73.3351 33.2425C73.3351 33.3981 73.3045 33.5522 73.2451 33.6959C73.1857 33.8397 73.0986 33.9702 72.9888 34.0802C72.8791 34.1901 72.7488 34.2773 72.6054 34.3367C72.462 34.3961 72.3083 34.4266 72.1532 34.4265Z" fill="#E6E6E6"/>
<path d="M90.8603 0H1.28622C0.944964 0.000520656 0.617854 0.136821 0.376704 0.378978C0.135555 0.621135 7.49255e-05 0.949359 0 1.2916V62.163C0.000429921 62.505 0.136079 62.8328 0.3772 63.0746C0.618321 63.3165 0.945228 63.4525 1.28622 63.4529H68.2688C68.2518 63.3307 68.2383 63.2068 68.2247 63.0846H1.28622C1.04256 63.0844 0.808946 62.9872 0.63665 62.8145C0.464354 62.6417 0.367456 62.4074 0.367232 62.163V1.2916C0.367391 1.04706 0.464213 0.812563 0.636474 0.639494C0.808736 0.466425 1.04239 0.368902 1.28622 0.3683H90.8603C91.1043 0.368556 91.3384 0.465913 91.511 0.63901C91.6836 0.812107 91.7806 1.0468 91.7809 1.2916V38.5986C91.9028 38.6071 92.0263 38.6172 92.1482 38.6291V1.2916C92.148 0.949088 92.0123 0.620656 91.7708 0.37847C91.5293 0.136285 91.2018 0.000157404 90.8603 0Z" fill="#3F3D56"/>
<path d="M68.2688 63.4533C68.2518 63.3311 68.2383 63.2072 68.2247 63.085C68.2213 63.0664 68.2197 63.0494 68.218 63.0307C68.1689 62.5844 68.1333 62.1335 68.1114 61.678C68.0183 62.0701 67.9343 62.4638 67.8592 62.8593C67.8643 62.917 67.8694 62.973 67.8761 63.0307C67.8778 63.0494 67.8795 63.0664 67.8829 63.085C67.8964 63.2072 67.91 63.3311 67.9269 63.4533C67.9743 63.8318 68.0318 64.2052 68.0995 64.5769C68.1012 64.5616 68.1029 64.5481 68.1046 64.5328C68.152 64.1747 68.2061 63.8182 68.2704 63.4618C68.2691 63.4592 68.2685 63.4563 68.2688 63.4533ZM92.1482 38.2884C92.0263 38.2765 91.9028 38.2663 91.7809 38.2579C91.7623 38.2562 91.7453 38.2562 91.7268 38.2545C91.1852 38.2137 90.6369 38.1934 90.0851 38.1934C86.9615 38.1943 83.8727 38.8521 81.0182 40.1241C78.1637 41.3961 75.6067 43.2542 73.5124 45.5784C71.4181 47.9026 69.833 50.6413 68.8593 53.6179C67.8855 56.5944 67.5449 59.7426 67.8592 62.8593C67.8643 62.917 67.8694 62.973 67.8761 63.0307C67.8778 63.0494 67.8795 63.0664 67.8829 63.085C67.8964 63.2072 67.91 63.3311 67.9269 63.4533C67.9743 63.8318 68.0318 64.2052 68.0995 64.5769C68.7719 68.2619 70.3511 71.7202 72.6938 74.6381C75.0365 77.556 78.0686 79.8412 81.515 81.2862C81.867 81.4322 82.2223 81.5713 82.5829 81.6986C82.8198 81.7852 83.0567 81.865 83.297 81.9413C83.4696 81.9974 83.644 82.05 83.8183 82.1009C84.0654 82.1739 84.3158 82.2435 84.568 82.3079C87.6613 83.1038 90.8893 83.222 94.0322 82.6544C97.1751 82.0868 100.159 80.8468 102.781 79.0187H102.783C105.757 76.9597 108.187 74.2077 109.867 70.999C111.546 67.7903 112.424 64.2207 112.424 60.5969C112.424 48.9403 103.502 39.3356 92.1482 38.2884ZM102.636 78.7081C101.602 79.4322 100.507 80.0654 99.3644 80.6005C98.5433 80.9859 97.6988 81.3192 96.836 81.5985C92.9427 82.8549 88.7775 83.0001 84.8066 82.0177C84.5088 81.9447 84.2132 81.865 83.9198 81.7784C83.6305 81.6936 83.3439 81.6036 83.0601 81.5085C82.8282 81.4288 82.5964 81.3473 82.3662 81.2608C82.1259 81.1691 81.889 81.0741 81.6521 80.9756C78.0883 79.4862 74.9768 77.0848 72.6285 74.0114C70.2802 70.938 68.7774 67.3002 68.2704 63.4618C68.2691 63.4592 68.2685 63.4563 68.2688 63.4533C68.2518 63.3311 68.2383 63.2072 68.2247 63.085C68.2213 63.0664 68.2197 63.0494 68.218 63.0307C68.1689 62.5844 68.1333 62.1335 68.1114 61.678C68.0928 61.3199 68.0837 60.9595 68.0843 60.5969C68.0906 54.7471 70.4106 49.1387 74.5352 45.0023C78.6598 40.8659 84.2521 38.5392 90.0851 38.5328C90.6369 38.5328 91.1852 38.5532 91.7268 38.5939C91.7454 38.5956 91.7623 38.5973 91.7809 38.599C91.9028 38.6075 92.0263 38.6177 92.1482 38.6295C103.316 39.675 112.086 49.127 112.086 60.5969C112.086 64.1565 111.226 67.6632 109.58 70.8171C107.934 73.971 105.552 76.6785 102.636 78.7081ZM82.3662 81.2608C82.1259 81.1691 81.889 81.0741 81.6521 80.9756C78.0883 79.4862 74.9768 77.0848 72.6285 74.0114C70.2802 70.938 68.7774 67.3002 68.2704 63.4618C68.2061 63.8182 68.152 64.1747 68.1046 64.5328C68.1029 64.5481 68.1012 64.5616 68.0995 64.5769C68.7719 68.2619 70.3511 71.7202 72.6938 74.6381C75.0365 77.556 78.0686 79.8412 81.515 81.2862C81.867 81.4322 82.2223 81.5713 82.5829 81.6986C82.5084 81.5544 82.4356 81.4084 82.3662 81.2608ZM91.7268 38.2545C91.1852 38.2137 90.6369 38.1934 90.0851 38.1934C86.9615 38.1943 83.8727 38.8521 81.0182 40.1241C78.1637 41.3961 75.6067 43.2542 73.5124 45.5784C71.4181 47.9026 69.833 50.6413 68.8593 53.6179C67.8855 56.5944 67.5449 59.7426 67.8592 62.8593C67.8643 62.917 67.8694 62.973 67.8761 63.0307C67.8778 63.0494 67.8795 63.0664 67.8829 63.085H68.2247C68.2213 63.0664 68.2197 63.0494 68.218 63.0307C68.1689 62.5844 68.1333 62.1335 68.1114 61.678C68.0928 61.3199 68.0837 60.9595 68.0843 60.5969C68.0906 54.7471 70.4106 49.1387 74.5352 45.0023C78.6598 40.8659 84.2521 38.5392 90.0851 38.5328C90.6369 38.5328 91.1852 38.5532 91.7268 38.5939C91.7454 38.5956 91.7623 38.5973 91.7809 38.599L91.7809 38.2579C91.7623 38.2562 91.7453 38.2562 91.7268 38.2545Z" fill="#3F3D56"/>
<path d="M108.243 43.9277C115.105 44.0453 115.104 54.281 108.243 54.3975C101.382 54.28 101.383 44.0443 108.243 43.9277Z" fill="#6C63FF"/>
<path d="M108.243 52.0124C108.146 52.0123 108.053 51.9735 107.984 51.9045C107.915 51.8356 107.877 51.7421 107.877 51.6445V49.6939C107.877 49.6504 107.859 49.6088 107.829 49.578C107.798 49.5473 107.756 49.53 107.713 49.5299H105.768C105.671 49.5299 105.577 49.4912 105.509 49.4221C105.44 49.3531 105.401 49.2596 105.401 49.162C105.401 49.0644 105.44 48.9708 105.509 48.9018C105.577 48.8328 105.671 48.794 105.768 48.794H107.713C107.756 48.794 107.798 48.7767 107.829 48.746C107.859 48.7153 107.877 48.6736 107.877 48.6301V46.6794C107.877 46.5818 107.915 46.4883 107.984 46.4193C108.053 46.3503 108.146 46.3115 108.243 46.3115C108.341 46.3115 108.434 46.3503 108.503 46.4193C108.572 46.4883 108.61 46.5818 108.61 46.6794V48.6301C108.61 48.6736 108.628 48.7153 108.658 48.746C108.689 48.7767 108.73 48.794 108.774 48.794H110.719C110.816 48.794 110.909 48.8328 110.978 48.9018C111.047 48.9708 111.086 49.0644 111.086 49.162C111.086 49.2596 111.047 49.3531 110.978 49.4221C110.909 49.4911 110.816 49.5299 110.719 49.5299H108.774C108.73 49.53 108.689 49.5473 108.658 49.578C108.628 49.6088 108.61 49.6504 108.61 49.6939V51.6445C108.61 51.7421 108.571 51.8356 108.503 51.9045C108.434 51.9735 108.341 52.0123 108.243 52.0124Z" fill="white"/>
</g>
<defs>
<clipPath id="clip0_2186_18566">
<rect width="117" height="83" fill="white"/>
</clipPath>
</defs>
</svg>
