<svg width="38" height="38" viewBox="0 0 38 38" fill="none" xmlns="http://www.w3.org/2000/svg">
<path d="M19 0.5C29.2173 0.5 37.5 8.78273 37.5 19C37.5 29.2173 29.2173 37.5 19 37.5C8.78273 37.5 0.5 29.2173 0.5 19C0.5 8.78273 8.78273 0.5 19 0.5Z" fill="#627EEA" stroke="white"/>
<path d="M19.5602 5.5V15.4787L27.9944 19.2475L19.5602 5.5Z" fill="white" fill-opacity="0.602"/>
<path d="M19.5602 5.5L11.125 19.2475L19.5602 15.4787V5.5Z" fill="white"/>
<path d="M19.5602 25.7139V32.4942L28 20.8179L19.5602 25.7139Z" fill="white" fill-opacity="0.602"/>
<path d="M19.5602 32.4942V25.7127L11.125 20.8179L19.5602 32.4942Z" fill="white"/>
<path d="M19.5602 24.1446L27.9944 19.2475L19.5602 15.481V24.1446Z" fill="white" fill-opacity="0.2"/>
<path d="M11.125 19.2475L19.5602 24.1446V15.481L11.125 19.2475Z" fill="white" fill-opacity="0.602"/>
</svg>
