<svg width="26" height="26" viewBox="0 0 26 26" fill="none" xmlns="http://www.w3.org/2000/svg">
<path d="M21.9062 15.1636V18.2031C21.9062 19.7561 21.2767 21.6311 20.2585 22.6492C19.2409 23.6673 17.8346 24.2969 16.2812 24.2969H14.0575C10.6257 24.2969 7.84373 21.0462 7.84373 17.6144C7.84373 16.0611 9.10293 14.8019 10.6562 14.8019V8.10395C10.6562 7.71583 10.8137 7.36427 11.0683 7.10974C11.3301 6.8479 11.6946 6.68876 12.096 6.69813C12.8642 6.71604 13.4687 7.36399 13.4687 8.13241V12.3227C13.4687 11.9346 13.6262 11.583 13.8807 11.3285C14.1353 11.0739 14.4868 10.9164 14.875 10.9164C15.2631 10.9164 15.6146 11.0739 15.8692 11.3285C16.1237 11.583 16.2812 11.9346 16.2812 12.3227V13.7289C16.2812 13.3408 16.4387 12.9893 16.6932 12.7347C16.9478 12.4802 17.2993 12.3227 17.6875 12.3227C18.0756 12.3227 18.4271 12.4802 18.6817 12.7347C18.9362 12.9893 19.0937 13.3408 19.0937 13.7289V15.1352C19.0937 14.7471 19.2512 14.3955 19.5057 14.141C19.7676 13.8791 20.1321 13.72 20.5335 13.7294C21.3017 13.7473 21.9062 14.3952 21.9062 15.1636Z" stroke="#9199A5" stroke-width="1.75" stroke-miterlimit="10" stroke-linecap="round" stroke-linejoin="round"/>
<path d="M19.0938 16.0723V15.1348" stroke="#9199A5" stroke-width="1.75" stroke-miterlimit="10" stroke-linecap="round" stroke-linejoin="round"/>
<path d="M13.4688 12.3223V16.0723" stroke="#9199A5" stroke-width="1.75" stroke-miterlimit="10" stroke-linecap="round" stroke-linejoin="round"/>
<path d="M16.2812 13.7285V16.0723" stroke="#9199A5" stroke-width="1.75" stroke-miterlimit="10" stroke-linecap="round" stroke-linejoin="round"/>
<path d="M10.6562 14.8019V17.2705" stroke="#9199A5" stroke-width="1.75" stroke-miterlimit="10" stroke-linecap="round" stroke-linejoin="round"/>
<path d="M13.0759 7.13965C14.1287 6.73324 14.875 5.71184 14.875 4.51559C14.875 2.96216 13.6159 1.7031 12.0625 1.7031C10.509 1.7031 9.24998 2.96216 9.24998 4.51559C9.24998 5.70903 9.99294 6.72856 11.042 7.1373" stroke="#9199A5" stroke-width="1.75" stroke-miterlimit="10" stroke-linecap="round" stroke-linejoin="round"/>
<path d="M9.24998 4.51562H1.70312L3.39062 2.82813" stroke="#9199A5" stroke-width="1.75" stroke-miterlimit="10" stroke-linecap="round" stroke-linejoin="round"/>
<path d="M1.70312 4.51563L3.39062 6.20312" stroke="#9199A5" stroke-width="1.75" stroke-miterlimit="10" stroke-linecap="round" stroke-linejoin="round"/>
<path d="M14.875 4.51562H24.2968L22.6093 2.82813" stroke="#9199A5" stroke-width="1.75" stroke-miterlimit="10" stroke-linecap="round" stroke-linejoin="round"/>
<path d="M24.2968 4.51563L22.6093 6.20312" stroke="#9199A5" stroke-width="1.75" stroke-miterlimit="10" stroke-linecap="round" stroke-linejoin="round"/>
</svg>
